<mxfile host="app.diagrams.net" modified="2023-10-20T14:58:41.313Z" agent="Mozilla/5.0 (Windows NT 10.0; Win64; x64) AppleWebKit/537.36 (KHTML, like Gecko) Chrome/116.0.5845.888 YaBrowser/23.9.2.888 Yowser/2.5 Safari/537.36" etag="dxJ9JNozI7Yggei3leLp" version="22.0.5" type="device">
  <diagram name="Страница — 1" id="wYvc4YyFlZ9Yc97deXyS">
    <mxGraphModel dx="1386" dy="791" grid="1" gridSize="10" guides="1" tooltips="1" connect="1" arrows="1" fold="1" page="1" pageScale="1" pageWidth="827" pageHeight="1169" math="0" shadow="0">
      <root>
        <mxCell id="0" />
        <mxCell id="1" parent="0" />
        <mxCell id="KiIedSo4OwmwZ2S77yev-1" value="&lt;p style=&quot;margin:0px;margin-top:4px;text-align:center;&quot;&gt;&lt;b&gt;Employee&lt;/b&gt;&lt;br&gt;&lt;/p&gt;&lt;hr size=&quot;1&quot;&gt;&lt;p style=&quot;text-align: justify; margin: 0px 0px 0px 4px; line-height: 170%;&quot;&gt;Name&lt;/p&gt;&lt;p style=&quot;text-align: justify; margin: 0px 0px 0px 4px; line-height: 170%;&quot;&gt;Surname&lt;/p&gt;&lt;p style=&quot;text-align: justify; margin: 0px 0px 0px 4px; line-height: 170%;&quot;&gt;Middle Name&lt;/p&gt;&lt;p style=&quot;text-align: justify; margin: 0px 0px 0px 4px; line-height: 170%;&quot;&gt;Employee ID&lt;/p&gt;&lt;p style=&quot;text-align: justify; margin: 0px 0px 0px 4px; line-height: 170%;&quot;&gt;Photo&lt;/p&gt;&lt;hr size=&quot;1&quot;&gt;&lt;p style=&quot;margin:0px;margin-left:4px;&quot;&gt;AddNewEmplyee()&lt;/p&gt;" style="verticalAlign=top;align=left;overflow=fill;fontSize=12;fontFamily=Helvetica;html=1;whiteSpace=wrap;" vertex="1" parent="1">
          <mxGeometry x="60" y="50" width="160" height="180" as="geometry" />
        </mxCell>
        <mxCell id="KiIedSo4OwmwZ2S77yev-2" value="&lt;p style=&quot;margin:0px;margin-top:4px;text-align:center;&quot;&gt;&lt;b&gt;Neural network&lt;/b&gt;&lt;br&gt;&lt;/p&gt;&lt;hr size=&quot;1&quot;&gt;&lt;p style=&quot;margin: 0px 0px 0px 4px; line-height: 170%;&quot;&gt;Educational photos&lt;br&gt;&lt;/p&gt;&lt;p style=&quot;margin: 0px 0px 0px 4px; line-height: 170%;&quot;&gt;Test photos&lt;br&gt;&lt;/p&gt;&lt;hr style=&quot;line-height: 170%;&quot; size=&quot;1&quot;&gt;&lt;p style=&quot;margin: 0px 0px 0px 4px; line-height: 170%;&quot;&gt;RecognizeAnEmployee()&lt;br&gt;&lt;/p&gt;" style="verticalAlign=top;align=left;overflow=fill;fontSize=12;fontFamily=Helvetica;html=1;whiteSpace=wrap;" vertex="1" parent="1">
          <mxGeometry x="334" y="50" width="160" height="110" as="geometry" />
        </mxCell>
        <mxCell id="KiIedSo4OwmwZ2S77yev-5" style="edgeStyle=orthogonalEdgeStyle;rounded=0;orthogonalLoop=1;jettySize=auto;html=1;entryX=0.5;entryY=1;entryDx=0;entryDy=0;" edge="1" parent="1" source="KiIedSo4OwmwZ2S77yev-3" target="KiIedSo4OwmwZ2S77yev-2">
          <mxGeometry relative="1" as="geometry" />
        </mxCell>
        <mxCell id="KiIedSo4OwmwZ2S77yev-3" value="&lt;p style=&quot;margin:0px;margin-top:4px;text-align:center;&quot;&gt;&lt;b&gt;Administrator&lt;/b&gt;&lt;/p&gt;&lt;hr size=&quot;1&quot;&gt;&lt;p style=&quot;margin: 0px 0px 0px 4px; line-height: 170%;&quot;&gt;Name&lt;/p&gt;&lt;p style=&quot;margin: 0px 0px 0px 4px; line-height: 170%;&quot;&gt;Photo&lt;/p&gt;&lt;hr size=&quot;1&quot;&gt;&lt;p style=&quot;margin: 0px 0px 0px 4px; line-height: 170%;&quot;&gt;EditPhoto()&lt;/p&gt;&lt;p style=&quot;margin: 0px 0px 0px 4px; line-height: 170%;&quot;&gt;MakePhotoEmployee()&lt;/p&gt;&lt;p style=&quot;margin: 0px 0px 0px 4px; line-height: 170%;&quot;&gt;TrainingNeuralNetwork()&lt;/p&gt;" style="verticalAlign=top;align=left;overflow=fill;fontSize=12;fontFamily=Helvetica;html=1;whiteSpace=wrap;" vertex="1" parent="1">
          <mxGeometry x="334" y="240" width="160" height="150" as="geometry" />
        </mxCell>
        <mxCell id="KiIedSo4OwmwZ2S77yev-4" style="edgeStyle=orthogonalEdgeStyle;rounded=0;orthogonalLoop=1;jettySize=auto;html=1;entryX=1.006;entryY=0.306;entryDx=0;entryDy=0;entryPerimeter=0;" edge="1" parent="1" source="KiIedSo4OwmwZ2S77yev-2" target="KiIedSo4OwmwZ2S77yev-1">
          <mxGeometry relative="1" as="geometry" />
        </mxCell>
        <mxCell id="KiIedSo4OwmwZ2S77yev-6" value="Use" style="text;html=1;align=center;verticalAlign=middle;resizable=0;points=[];autosize=1;strokeColor=none;fillColor=none;" vertex="1" parent="1">
          <mxGeometry x="414" y="190" width="40" height="30" as="geometry" />
        </mxCell>
        <mxCell id="KiIedSo4OwmwZ2S77yev-7" value="" style="endArrow=classic;html=1;rounded=0;entryX=1;entryY=1;entryDx=0;entryDy=0;exitX=0;exitY=0.5;exitDx=0;exitDy=0;" edge="1" parent="1" source="KiIedSo4OwmwZ2S77yev-3" target="KiIedSo4OwmwZ2S77yev-1">
          <mxGeometry width="50" height="50" relative="1" as="geometry">
            <mxPoint x="170" y="380" as="sourcePoint" />
            <mxPoint x="220" y="330" as="targetPoint" />
          </mxGeometry>
        </mxCell>
        <mxCell id="KiIedSo4OwmwZ2S77yev-8" value="Get Photo" style="text;html=1;align=center;verticalAlign=middle;resizable=0;points=[];autosize=1;strokeColor=none;fillColor=none;rotation=40;" vertex="1" parent="1">
          <mxGeometry x="240" y="240" width="80" height="30" as="geometry" />
        </mxCell>
        <mxCell id="KiIedSo4OwmwZ2S77yev-9" value="Recognize" style="text;html=1;align=center;verticalAlign=middle;resizable=0;points=[];autosize=1;strokeColor=none;fillColor=none;" vertex="1" parent="1">
          <mxGeometry x="235" y="80" width="80" height="30" as="geometry" />
        </mxCell>
      </root>
    </mxGraphModel>
  </diagram>
</mxfile>
